<?xml version="1.0" standalone="no"?>
<!DOCTYPE svg PUBLIC "-//W3C//DTD SVG 20010904//EN"
 "http://www.w3.org/TR/2001/REC-SVG-20010904/DTD/svg10.dtd">
<svg version="1.0" xmlns="http://www.w3.org/2000/svg"
 width="200.000000pt" height="200.000000pt" viewBox="0 0 200.000000 200.000000"
 preserveAspectRatio="xMidYMid meet">
<metadata>
Created by potrace 1.11, written by Peter Selinger 2001-2013
</metadata>
<g transform="translate(0.000000,200.000000) scale(0.100000,-0.100000)"
fill="#000000" stroke="none">
<path d="M241 1980 c-29 -11 -65 -27 -80 -36 -45 -30 -100 -94 -128 -152 -24
-50 -28 -68 -28 -147 1 -77 5 -98 28 -146 66 -137 216 -222 360 -205 58 7 159
52 197 88 167 156 150 426 -34 552 -65 45 -103 58 -191 62 -50 2 -86 -3 -124
-16z"/>
<path d="M1532 1980 c-64 -23 -121 -63 -163 -116 -33 -41 -63 -94 -54 -94 3 0
-1 -12 -9 -27 -9 -18 -13 -55 -12 -103 5 -226 219 -391 433 -336 170 43 275
183 269 359 -4 130 -84 249 -204 304 -75 35 -184 40 -260 13z"/>
<path d="M948 1349 c-108 -16 -214 -91 -262 -188 -23 -43 -30 -70 -40 -145
-10 -74 41 -204 105 -266 74 -72 150 -102 255 -101 281 2 444 324 281 554 -79
111 -206 165 -339 146z"/>
<path d="M245 689 c-301 -104 -327 -518 -41 -653 240 -114 516 72 501 337 -13
233 -243 391 -460 316z"/>
<path d="M1555 696 c-160 -45 -269 -192 -260 -352 2 -33 6 -70 9 -83 18 -78
105 -187 174 -217 21 -9 46 -21 57 -27 11 -5 53 -12 92 -13 150 -6 275 69 340
206 31 66 39 173 18 244 -30 100 -115 191 -215 231 -54 21 -160 27 -215 11z"/>
</g>
</svg>
